

==========================================
	Pre-Check Configurations
==========================================

File to be converted
--------------------
		Initializing File <strong>16049619635ab5c.mp4</strong> and pre checking configurations...

System hardware Information
---------------------------
		Unable log System hardware information, plaese install "lshw" 

Temporary Uploading
-------------------
		File Uploaded to Temp directory successfully and video conversion file is being executed !

Video Conversion File Execution
-------------------------------
		Video Converson File executed successfully with Target File > !16049619635ab5c.mp3


==========================================
	Starting Conversion Log
==========================================

Getting Arguments
-----------------
		Filename : 16049619635ab5c.mp3
File directory : 2020/11/09
Log file : /var/www/vhosts/lookmyad.com/httpdocs/clip/files/logs/2020/11/09/16049619635ab5c.log


Conversion queue
----------------
		Getting the file information from the queue for conversion

Conversion queue
----------------
		File has been moved from Temporary dir to Conversion Queue/var/www/vhosts/lookmyad.com/httpdocs/clip/files/temp/16049619635ab5c.jhz Orig_ /var/www/vhosts/lookmyad.com/httpdocs/clip/files/conversion_queue/16049619635ab5c.mp3

Parsing FFmpeg Configurations
-----------------------------
		<strong>use_video_rate</strong> : 1
<strong>use_video_bit_rate</strong> : 1
<strong>use_audio_rate</strong> : 1
<strong>use_audio_bit_rate</strong> : 1
<strong>use_audio_codec</strong> : 1
<strong>use_video_codec</strong> : 1
<strong>format</strong> : mp4
<strong>video_codec</strong> : libx264
<strong>audio_codec</strong> : libfdk_aac
<strong>audio_rate</strong> : 22050
<strong>audio_bitrate</strong> : 128000
<strong>video_rate</strong> : 
<strong>video_bitrate</strong> : 
<strong>video_bitrate_hd</strong> : 
<strong>normal_res</strong> : 
<strong>high_res</strong> : 
<strong>max_video_duration</strong> : 320
<strong>resize</strong> : max
<strong>outputPath</strong> : 2020/11/09/
<strong>cb_combo_res</strong> : 
<strong>gen_240</strong> : yes
<strong>gen_360</strong> : yes
<strong>gen_480</strong> : yes
<strong>gen_720</strong> : yes
<strong>gen_1080</strong> : yes


Starting Conversion
-------------------
		Started on 2020-11-09 22:46:09 - 2020 Nov 09

Checking File...
File : /var/www/vhosts/lookmyad.com/httpdocs/clip/files/conversion_queue/16049619635ab5c.mp3

File Exists____19200
--------------------
		Yes

Preparing file...
-----------------
		<strong>format</strong> : mp3
<strong>duration</strong> : 336.83
<strong>size</strong> : 5389735
<strong>bitrate</strong> : 128013
<strong>video_width</strong> : 0
<strong>video_height</strong> : 0
<strong>video_wh_ratio</strong> : N/A
<strong>video_codec</strong> : 
<strong>video_rate</strong> : 
<strong>video_bitrate</strong> : 0
<strong>video_color</strong> : N/A
<strong>audio_codec</strong> : mp3
<strong>audio_bitrate</strong> : 128000
<strong>audio_rate</strong> : 44100
<strong>audio_channels</strong> : 2
<strong>path</strong> : /var/www/vhosts/lookmyad.com/httpdocs/clip/files/conversion_queue/16049619635ab5c.mp3
<strong>rotation</strong> : 0


Audio Files ____ /var/www/vhosts/lookmyad.com/httpdocs/clip/files/conversion_queue/16049619635ab5c.mp3 Resolutions: 
--------------------------------------------------------------------------------------------------------------------
		/var/www/vhosts/lookmyad.com/httpdocs/clip/files/conversion_queue/16049619635ab5c.mp3

==========================================
	Video Conversionaudio
==========================================

==========================================
	Audio Conversion
==========================================

Getting Video Details Array: 
-----------------------------
		<strong>size</strong> : 5389735
<strong>duration</strong> : 336
<strong>bitrate</strong> : 125
<strong>format</strong> : mp3
<strong>audio_codec</strong> : mp3
<strong>audio_rate</strong> : 44100
<strong>audio_channels</strong> : stereo


Getting out : 
--------------
		ffmpeg version 3.4.8 Copyright (c) 2000-2020 the FFmpeg developers
  built with gcc 4.8.5 (GCC) 20150623 (Red Hat 4.8.5-39)
  configuration: --prefix=/usr --bindir=/usr/bin --datadir=/usr/share/ffmpeg --docdir=/usr/share/doc/ffmpeg --incdir=/usr/include/ffmpeg --libdir=/usr/lib64 --mandir=/usr/share/man --arch=x86_64 --optflags='-O2 -g -pipe -Wall -Wp,-D_FORTIFY_SOURCE=2 -fexceptions -fstack-protector-strong --param=ssp-buffer-size=4 -grecord-gcc-switches -m64 -mtune=generic' --extra-ldflags='-Wl,-z,relro ' --extra-cflags=' ' --enable-libopencore-amrnb --enable-libopencore-amrwb --enable-libvo-amrwbenc --enable-version3 --enable-bzlib --disable-crystalhd --enable-fontconfig --enable-gcrypt --enable-gnutls --enable-ladspa --enable-libass --enable-libbluray --enable-libcdio --enable-libdrm --enable-indev=jack --enable-libfreetype --enable-libfribidi --enable-libgsm --enable-libmp3lame --enable-nvenc --enable-openal --enable-opencl --enable-opengl --enable-libopenjpeg --enable-libopus --disable-encoder=libopus --enable-libpulse --enable-librsvg --enable-libsoxr --enable-libspeex --enable-libtheora --enable-libvorbis --enable-libv4l2 --enable-libvidstab --enable-libvpx --enable-libx264 --enable-libx265 --enable-libxvid --enable-libzvbi --enable-avfilter --enable-avresample --enable-libmodplug --enable-postproc --enable-pthreads --disable-static --enable-shared --enable-gpl --disable-debug --disable-stripping --shlibdir=/usr/lib64 --enable-libmfx --enable-runtime-cpudetect
  libavutil      55. 78.100 / 55. 78.100
  libavcodec     57.107.100 / 57.107.100
  libavformat    57. 83.100 / 57. 83.100
  libavdevice    57. 10.100 / 57. 10.100
  libavfilter     6.107.100 /  6.107.100
  libavresample   3.  7.  0 /  3.  7.  0
  libswscale      4.  8.100 /  4.  8.100
  libswresample   2.  9.100 /  2.  9.100
  libpostproc    54.  7.100 / 54.  7.100
Input #0, mp3, from '/var/www/vhosts/lookmyad.com/httpdocs/clip/files/conversion_queue/16049619635ab5c.mp3':
  Metadata:
    title           : Text1
    artist          : Text1
    album           : Text1
    genre           : Text1
    WM/Track        : 1
    track           : 1
    WMFSDKVersion   : 9.00.00.3250
    WMFSDKNeeded    : 0.0.0.0000
    IsVBR           : 1
    DeviceConformanceTemplate: L2
    WM/WMADRCPeakReference: 32767
    WM/WMADRCAverageReference: 8695
    encoder         : Lavf58.51.100
  Duration: 00:05:36.82, start: 0.025057, bitrate: 128 kb/s
    Stream #0:0: Audio: mp3, 44100 Hz, stereo, s16p, 128 kb/s
    Metadata:
      encoder         : Lavc58.10
Output #0, null, to '/dev/null':
  Metadata:
    title           : Text1
    artist          : Text1
    album           : Text1
    genre           : Text1
    WM/Track        : 1
    track           : 1
    WMFSDKVersion   : 9.00.00.3250
    WMFSDKNeeded    : 0.0.0.0000
    IsVBR           : 1
    DeviceConformanceTemplate: L2
    WM/WMADRCPeakReference: 32767
    WM/WMADRCAverageReference: 8695
    encoder         : Lavf57.83.100
    Stream #0:0: Audio: mp3, 44100 Hz, stereo, s16p, 128 kb/s
    Metadata:
      encoder         : Lavc58.10
Stream mapping:
  Stream #0:0 -> #0:0 (copy)
Press [q] to stop, [?] for help
size=N/A time=00:05:36.77 bitrate=N/A speed=6e+03x    
video:0kB audio:5263kB subtitle:0kB other streams:0kB global headers:0kB muxing overhead: unknown


Low SD second Execute Full Command : 
-------------------------------------
		
======Converting Video=========


=======Low Resolution Conversion=======


 Sarting : Generating Low resolution video @ 2020-11-09 22:46:09 

 Converting Video SD File  

 Command : /usr/local/bin/ffmpeg -i /var/www/vhosts/lookmyad.com/httpdocs/clip/files/conversion_queue/16049619635ab5c.mp3 /var/www/vhosts/lookmyad.com/httpdocs/clip/files/videos/2020/11/09//16049619635ab5c-audio.mp4 

 ffmpeg output : ffmpeg version 3.4.8 Copyright (c) 2000-2020 the FFmpeg developers
  built with gcc 4.8.5 (GCC) 20150623 (Red Hat 4.8.5-39)
  configuration: --prefix=/usr --bindir=/usr/bin --datadir=/usr/share/ffmpeg --docdir=/usr/share/doc/ffmpeg --incdir=/usr/include/ffmpeg --libdir=/usr/lib64 --mandir=/usr/share/man --arch=x86_64 --optflags='-O2 -g -pipe -Wall -Wp,-D_FORTIFY_SOURCE=2 -fexceptions -fstack-protector-strong --param=ssp-buffer-size=4 -grecord-gcc-switches -m64 -mtune=generic' --extra-ldflags='-Wl,-z,relro ' --extra-cflags=' ' --enable-libopencore-amrnb --enable-libopencore-amrwb --enable-libvo-amrwbenc --enable-version3 --enable-bzlib --disable-crystalhd --enable-fontconfig --enable-gcrypt --enable-gnutls --enable-ladspa --enable-libass --enable-libbluray --enable-libcdio --enable-libdrm --enable-indev=jack --enable-libfreetype --enable-libfribidi --enable-libgsm --enable-libmp3lame --enable-nvenc --enable-openal --enable-opencl --enable-opengl --enable-libopenjpeg --enable-libopus --disable-encoder=libopus --enable-libpulse --enable-librsvg --enable-libsoxr --enable-libspeex --enable-libtheora --enable-libvorbis --enable-libv4l2 --enable-libvidstab --enable-libvpx --enable-libx264 --enable-libx265 --enable-libxvid --enable-libzvbi --enable-avfilter --enable-avresample --enable-libmodplug --enable-postproc --enable-pthreads --disable-static --enable-shared --enable-gpl --disable-debug --disable-stripping --shlibdir=/usr/lib64 --enable-libmfx --enable-runtime-cpudetect
  libavutil      55. 78.100 / 55. 78.100
  libavcodec     57.107.100 / 57.107.100
  libavformat    57. 83.100 / 57. 83.100
  libavdevice    57. 10.100 / 57. 10.100
  libavfilter     6.107.100 /  6.107.100
  libavresample   3.  7.  0 /  3.  7.  0
  libswscale      4.  8.100 /  4.  8.100
  libswresample   2.  9.100 /  2.  9.100
  libpostproc    54.  7.100 / 54.  7.100
Input #0, mp3, from '/var/www/vhosts/lookmyad.com/httpdocs/clip/files/conversion_queue/16049619635ab5c.mp3':
  Metadata:
    title           : Text1
    artist          : Text1
    album           : Text1
    genre           : Text1
    WM/Track        : 1
    track           : 1
    WMFSDKVersion   : 9.00.00.3250
    WMFSDKNeeded    : 0.0.0.0000
    IsVBR           : 1
    DeviceConformanceTemplate: L2
    WM/WMADRCPeakReference: 32767
    WM/WMADRCAverageReference: 8695
    encoder         : Lavf58.51.100
  Duration: 00:05:36.82, start: 0.025057, bitrate: 128 kb/s
    Stream #0:0: Audio: mp3, 44100 Hz, stereo, s16p, 128 kb/s
    Metadata:
      encoder         : Lavc58.10
/var/www/vhosts/lookmyad.com/httpdocs/clip/files/videos/2020/11/09//16049619635ab5c-audio.mp4: No such file or directory
 


Conversion Completed___ Output File
-----------------------------------
		

Time Took : 0.9657 seconds

conversion_status : failed 
